<?xml version="1.0" encoding="UTF-8" standalone="no"?>
<!-- Created with Inkscape (http://www.inkscape.org/) -->

<svg
   xmlns:dc="http://purl.org/dc/elements/1.1/"
   xmlns:cc="http://creativecommons.org/ns#"
   xmlns:rdf="http://www.w3.org/1999/02/22-rdf-syntax-ns#"
   xmlns:svg="http://www.w3.org/2000/svg"
   xmlns="http://www.w3.org/2000/svg"
   xmlns:sodipodi="http://sodipodi.sourceforge.net/DTD/sodipodi-0.dtd"
   xmlns:inkscape="http://www.inkscape.org/namespaces/inkscape"
   id="svg2"
   version="1.1"
   inkscape:version="0.91 r13725"
   width="1080"
   height="1080"
   viewBox="0 0 1080 1080"
   sodipodi:docname="Tribal Dragon 05.svg"
   inkscape:export-filename="Tribal Dragon 05.png"
   inkscape:export-xdpi="90"
   inkscape:export-ydpi="90">
  <metadata
     id="metadata8">
    <rdf:RDF>
      <cc:Work
         rdf:about="">
        <dc:format>image/svg+xml</dc:format>
        <dc:type
           rdf:resource="http://purl.org/dc/dcmitype/StillImage" />
        <dc:title />
        <cc:license
           rdf:resource="http://artlibre.org/licence/lal" />
      </cc:Work>
      <cc:License
         rdf:about="http://artlibre.org/licence/lal">
        <cc:permits
           rdf:resource="http://creativecommons.org/ns#Reproduction" />
        <cc:permits
           rdf:resource="http://creativecommons.org/ns#Distribution" />
        <cc:permits
           rdf:resource="http://creativecommons.org/ns#DerivativeWorks" />
        <cc:requires
           rdf:resource="http://creativecommons.org/ns#ShareAlike" />
        <cc:requires
           rdf:resource="http://creativecommons.org/ns#Notice" />
        <cc:requires
           rdf:resource="http://creativecommons.org/ns#Attribution" />
      </cc:License>
    </rdf:RDF>
  </metadata>
  <defs
     id="defs6" />
  <sodipodi:namedview
     pagecolor="#ffffff"
     bordercolor="#666666"
     borderopacity="1"
     objecttolerance="10"
     gridtolerance="10"
     guidetolerance="10"
     inkscape:pageopacity="0"
     inkscape:pageshadow="2"
     inkscape:window-width="1366"
     inkscape:window-height="715"
     id="namedview4"
     showgrid="false"
     inkscape:zoom="0.52685185"
     inkscape:cx="540"
     inkscape:cy="540"
     inkscape:window-x="-8"
     inkscape:window-y="-8"
     inkscape:window-maximized="1"
     inkscape:current-layer="svg2" />
  <path
     style=""
     d="m 613.12883,1049.8805 c -5.1804,-10.8022 -17.6549,-29.1698 -29.5769,-43.5496 -8.8991,-10.73353 -25.0539,-26.34989 -39.0405,-37.73911 -12.4886,-10.16952 -32.835,-24.12891 -46.4952,-31.89984 -5.5367,-3.14967 -39.0392,-19.84784 -41.693,-20.78042 -3.5102,-1.23351 -8.336,-3.59732 -8.5659,-4.19573 -0.1127,-0.29344 -0.7258,-0.44102 -1.4134,-0.34019 -0.8322,0.122 -1.6168,-0.15554 -2.4936,-0.88202 -0.7036,-0.58302 -2.1633,-1.37297 -3.2438,-1.75542 -1.0805,-0.38248 -4.5186,-1.80886 -7.6401,-3.16976 -4.5953,-2.00344 -20.725,-8.84062 -50.2061,-21.28176 -6.1494,-2.59501 -30.2521,-12.05856 -30.7121,-12.05856 -0.7535,0 -0.6443,0.2938 1.0647,2.86574 3.485,5.24476 13.9077,13.24564 28.9925,22.25589 4.9224,2.94012 9.9321,6.05787 11.1327,6.9282 l 2.1828,1.58251 -2.1828,-0.28832 c -19.5935,-2.58758 -59.1973,-18.51046 -97.3563,-39.14246 -19.7628,-10.68538 -27.5345,-15.10988 -47.2644,-26.90824 -7.7466,-4.63239 -14.1868,-8.32053 -14.3116,-8.19591 -0.3486,0.3483 -7.7307,16.89387 -21.6543,48.53446 -13.6709,31.06628 -14.5749,32.92678 -20.5179,42.22953 -12.685,19.85587 -27.5309,36.30285 -43.8143,48.53955 -3.3149,2.49104 -10.0594,7.13687 -10.3609,7.13687 -0.077,0 2.4266,-5.15151 5.5644,-11.44781 14.2738,-28.64135 20.7464,-51.10751 24.532,-85.14982 1.12,-10.07163 1.1129,-37.96986 -0.012,-48.18979 -3.6231,-32.90945 -12.3575,-58.08233 -28.9471,-83.42658 l -3.6536,-5.58157 -1.7387,1.39578 c -0.9563,0.76769 -1.8398,1.7138 -1.9633,2.10239 -0.1235,0.38865 -1.8957,12.37904 -3.9383,26.64531 -2.0426,14.2662 -4.1788,28.78419 -4.7471,32.26216 l -1.0332,6.32355 -4.3778,-8.94019 c -16.7744,-34.25597 -28.121899,-68.02674 -31.798899,-94.63515 -1.6303,-11.79714 -0.8404,-30.44028 1.8461,-43.57508 1.1517,-5.63118 5.7511,-21.62587 9.085,-31.59418 7.441099,-22.24839 22.340499,-46.65487 42.366399,-69.4001 7.0421,-7.99823 10.1609,-11.12072 11.1077,-11.12072 0.6108,0 0.9072,-0.28002 0.9072,-0.85704 0,-1.242 2.4446,-3.83247 3.9226,-4.15676 0.7819,-0.17151 1.1844,-0.49161 1.0519,-0.83652 -0.2672,-0.69564 6.7326,-7.40453 16.3433,-15.66397 20.5786,-17.68539 45.0175,-35.30793 69.4899,-50.10828 l 7.6401,-4.62057 6.112,-0.71088 c 29.2044,-3.39689 44.4249,-6.21348 59.121,-10.94053 9.2784,-2.9845 18.4642,-7.01193 25.0955,-11.00304 l 2.5769,-1.55093 -4.5415,-1.00933 c -17.9139,-3.9813 -35.5566,-13.04269 -53.6562,-27.55821 -4.2385,-3.39915 -13.2996,-11.41029 -12.9059,-11.41029 0.1201,0 2.9257,0.59157 6.2347,1.3146 26.9225,5.88259 57.5034,10.19083 83.5085,11.76469 9.3556,0.56621 45.4393,0.56174 56.0999,-0.007 48.4341,-2.58377 92.0208,-13.04758 128.8032,-30.9217 12.1405,-5.89952 20.0471,-10.42937 30.5746,-17.51663 9.96,-6.70523 14.8026,-11.36794 22.4012,-21.56907 9.2287,-12.38965 12.4868,-21.19028 12.4231,-33.55705 -0.058,-11.27642 -3.883,-19.58729 -14.7164,-31.97583 -9.2571,-10.58591 -21.2041,-17.58594 -36.289,-21.2625 -3.7194,-0.90654 -12.8748,-2.36527 -14.8449,-2.36527 -0.3363,0 -1.2209,0.88467 -1.9655,1.9659 l -1.3541,1.96594 7.3004,11.44434 c 4.0152,6.29442 9.5943,14.97685 12.3981,19.2943 4.9886,7.6819 9.1621,14.61307 9.1621,15.21598 0,0.16648 -2.4066,-1.88971 -5.348,-4.56929 -6.0643,-5.52442 -12.6413,-10.97094 -17.1356,-14.19017 -3.7843,-2.71067 -8.9386,-5.83281 -9.6295,-5.83281 -0.5473,0 0.597,7.24007 3.2396,20.49701 3.1702,15.90391 3.9802,22.38233 3.9852,31.87546 0,6.6314 -0.6318,13.7816 -1.2868,14.48328 -0.5226,0.55989 -1.7229,-1.63777 -3.4904,-6.39099 -2.766,-7.43796 -7.9182,-19.20202 -8.8139,-20.12489 -0.4657,-0.47972 -1.9685,-2.70376 -3.3398,-4.94231 -7.845,-12.80706 -19.4157,-24.80735 -31.6823,-32.85883 -2.1274,-1.3963 -4.0157,-2.53873 -4.1964,-2.53873 -0.1806,0 -0.4643,1.3242 -0.6303,2.94264 -0.4647,4.53136 -2.1819,12.09802 -3.9411,17.36657 -4.263,12.76701 -12.7831,26.02974 -21.7001,33.7796 -9.7261,8.4529 -14.2644,10.78855 -25.7754,13.26542 -17.1931,3.69948 -36.7232,3.71577 -59.3665,0.0495 -4.1656,-0.67446 -28.8392,-4.09926 -44.8931,-6.2313 -11.1394,-1.47941 -24.8584,-1.65061 -32.0856,-0.40045 -11.2486,1.94584 -17.1461,4.01955 -33.7001,11.84986 -9.1021,4.30545 -13.5725,7.78558 -28.3313,22.05531 -9.7115,9.38976 -14.5936,13.23228 -20.7443,16.32734 -5.2029,2.61811 -8.3899,3.39396 -13.9284,3.39058 -5.0613,-0.003 -8.5579,-0.69299 -13.8559,-2.73394 -5.6772,-2.18702 -19.3713,-13.57785 -23.9466,-19.91901 -3.3893,-4.69743 -3.8365,-6.16118 -3.528,-11.54811 0.9381,-16.37724 8.6517,-31.60161 22.1765,-43.76972 1.7188,-1.5464 3.8459,-3.31058 4.7268,-3.92043 1.9119,-1.32353 7.255,-2.94393 15.3003,-4.64021 11.1608,-2.35313 33.521,-10.56212 60.684,-22.27866 l 5.4572,-2.35393 0.2356,-4.99538 c 0.1939,-4.11102 0.4322,-5.42 1.3463,-7.39396 1.9761,-4.26715 8.5381,-9.97027 14.4468,-12.55593 1.1321,-0.49538 3.8825,-1.32399 6.1121,-1.84131 15.6318,-3.62705 25.8794,-7.78779 37.8876,-15.38309 11.6542,-7.37139 25.2407,-19.37175 36.0327,-31.82605 2.748,-3.1712 3.2734,-3.55134 8.2786,-5.98928 6.8248,-3.32422 8.5151,-4.99887 8.5151,-8.43657 0,-3.18808 -1.9399,-6.99226 -4.9816,-9.76925 -1.4435,-1.31784 -5.1435,-3.63298 -9.8126,-6.13986 -11.6727,-6.26727 -13.6858,-6.85912 -20.8766,-6.1379 -12.5846,1.26216 -25.017,5.93719 -43.7608,16.45556 -3.4678,1.94601 -6.3738,3.46963 -6.4577,3.38583 -0.2953,-0.29502 3.0003,-5.51344 6.1621,-9.75728 12.8577,-17.2581 31.116,-28.9804 51.3498,-32.96792 17.1192,-3.37372 33.846,-2.45067 67.4509,3.72222 14.475,2.65893 12.9076,2.69654 16.0801,-0.38593 3.8879,-3.77752 13.9222,-12.6061 21.247,-18.69415 59.0008,-49.038199 124.8335,-86.371489 195.7379,-111.001639 9.5254,-3.30886 24.2876,-7.95375 24.5249,-7.71672 0.344,0.34362 -13.1594,11.24971 -37.8654,30.58214 -21.6446,16.93695 -30.5419,24.48851 -43.9665,37.31643 -10.7335,10.256499 -19.561,19.994709 -24.8165,27.376979 l -0.9808,1.3777 3.1666,0.51078 c 4.7184,0.76109 12.589,2.50431 18.0102,3.989 6.601,1.80781 14.7457,4.32812 14.5601,4.50554 -0.3041,0.29077 -10.4489,2.42702 -22.855,4.81268 -22.1051,4.25073 -27.9338,6.16825 -35.0069,11.51637 -5.2873,3.99785 -8.9582,8.95892 -10.6311,14.36755 -0.4715,1.52439 -0.8573,2.93172 -0.8573,3.12741 0,0.38106 6.6555,-1.28065 14.8378,-3.7046 10.3769,-3.07413 38.7316,-9.56487 59.8166,-13.69281 23.417,-4.58447 55.1766,-10.05397 55.3839,-9.53798 0.3622,0.90125 -2.6284,3.65846 -6.2821,5.79182 -7.4811,4.36822 -8.6139,5.18887 -9.8757,7.15404 -0.685,1.06699 -1.0978,2.0812 -0.9173,2.2538 0.548,0.52409 3.3153,0.54897 4.4756,0.0403 1.1105,-0.48684 11.2064,-2.33715 27.7225,-5.08071 64.6545,-10.74006 125.2183,-16.25808 203.8807,-18.57573 19.3337,-0.56964 100.3454,-0.34069 101.8552,0.28785 1.1528,0.47997 2.0112,0.29148 -21.5253,4.72671 -31.9929,6.02877 -85.2422,18.96027 -147.5625,35.83537 -31.0161,8.39854 -65.4136,18.09392 -66.9041,18.85781 -1.5164,0.7771 -1.3557,0.78984 13.257,1.05245 26.1212,0.46942 51.3037,1.56942 52.6348,2.29918 0.6438,0.35294 1.2779,0.46807 1.4092,0.25584 0.4073,-0.65814 21.4247,0.28148 41.7326,1.86577 7.5637,0.59007 18.0743,1.38351 23.3568,1.7632 5.2826,0.37969 11.9622,0.97056 14.8436,1.31303 2.8814,0.34246 8.0876,0.82469 11.5692,1.07163 7.9649,0.56495 22.2654,2.29354 22.2654,2.69138 0,0.46328 -4.6755,1.17242 -15.5664,2.36108 -17.7694,1.93938 -53.6667,7.0734 -68.4744,9.79324 -3.8418,0.70566 -12.9739,2.28761 -20.2934,3.51544 -7.3196,1.22783 -16.1418,2.8057 -19.6049,3.50637 -3.4631,0.70067 -6.3642,1.27395 -6.4468,1.27395 -0.083,0 -0.1502,0.25766 -0.1502,0.57256 0,0.87504 2.1477,2.69601 4.6574,3.94889 5.8544,2.92265 28.2084,18.73127 40.0139,28.29754 36.8871,29.8905 67.4533,67.46531 88.2455,108.47958 5.3675,10.58794 12.0738,26.07304 11.015,25.43419 -0.2842,-0.17147 -6.9999,-5.92121 -14.9237,-12.77723 -22.8753,-19.79247 -29.8725,-25.50934 -43.0027,-35.1339 -10.8153,-7.92772 -36.4282,-25.07879 -42.1295,-28.2109 -2.6413,-1.45109 -8.0439,-4.44836 -12.0059,-6.66064 -16.0214,-8.94616 -26.9325,-14.12993 -44.9672,-21.36354 -9.516,-3.81681 -22.5968,-8.32361 -22.9974,-7.92343 -0.4249,0.42448 1.6876,3.42319 6.1928,8.79041 30.5544,36.40091 55.1906,73.76957 68.5164,103.92687 7.1978,16.28904 10.6266,25.90533 13.7917,38.68001 4.2762,17.25852 5.4506,27.33119 5.0977,43.72238 -0.2543,11.80872 -0.933,17.86495 -3.2114,28.6543 -5.0611,23.96668 -17.8299,48.58054 -35.9805,69.35799 -4.6468,5.31935 -16.746,17.21125 -21.8047,21.43101 -4.3529,3.63113 -12.3602,9.75997 -12.5299,9.59051 -0.065,-0.0646 0.5453,-2.36806 1.3555,-5.11867 2.7808,-9.44 5.2424,-21.48628 6.4518,-31.57224 0.9098,-7.58804 0.7767,-33.93049 -0.2171,-42.95651 -1.8628,-16.9195 -4.6171,-29.55536 -9.8861,-45.35509 -4.0243,-12.06752 -7.874,-21.33406 -13.2192,-31.8203 -3.0601,-6.00316 -8.4722,-15.15823 -9.8054,-16.58674 -0.1115,-0.11949 -0.6282,0.36612 -1.1482,1.07914 -0.5199,0.71302 -1.6825,2.14714 -2.5833,3.18693 -0.9009,1.03978 -2.1616,2.99595 -2.8014,4.34707 -0.6398,1.3511 -3.1684,5.11721 -5.6189,8.3691 -11.4405,15.18192 -26.3499,29.87362 -43.0414,42.41291 -11.8813,8.92574 -30.2533,20.42619 -40.3302,25.24594 -8.0308,3.84108 -53.6434,24.80452 -74.4337,34.20956 -10.2062,4.61705 -21.209,9.61595 -24.4506,11.10865 -10.1832,4.6892 -15.157,6.41049 -27.0715,9.36869 -35.2882,8.76149 -66.1978,12.45207 -93.4568,11.15871 -16.8565,-0.79978 -16.3748,-0.52852 -6.6591,-3.74964 13.0336,-4.32119 21.085,-8.26722 28.8127,-14.12134 3.9151,-2.96595 9.6302,-8.59106 9.1827,-9.03812 -0.5739,-0.57329 -8.921,0.75844 -29.299,4.67454 -57.7347,11.09507 -70.219,14.23372 -86.4172,21.72596 -16.274,7.52731 -33.6402,20.51952 -43.1923,32.31369 -6.4547,7.96962 -12.6585,18.74561 -15.4808,26.89023 -1.6295,4.70218 -1.6381,4.76375 -1.6018,11.48716 0.04,7.35105 0.5256,9.91431 3.1855,16.8043 2.7786,7.1974 8.7682,16.15818 15.0804,22.56113 1.8363,1.86259 7.1519,6.42664 11.8126,10.14223 4.6606,3.71563 8.5877,6.93961 8.7268,7.16447 0.709,1.14598 -12.1658,-0.90658 -18.0443,-2.87666 -8.3774,-2.80762 -19.0951,-8.90276 -27.3719,-15.56636 -5.0044,-4.02903 -15.4524,-13.92464 -19.9832,-18.92665 -6.3287,-6.98681 -17.1854,-20.73045 -24.302,-30.76418 -1.7966,-2.53298 -1.9115,-2.40033 -3.0632,3.53434 -3.7164,19.15067 1.65,39.82778 14.7905,56.98938 3.8073,4.97245 9.6239,10.56952 13.7574,13.23828 24.5863,15.87411 52.7875,24.88118 89.5516,28.60158 14.4068,1.45789 20.9963,1.725 43.1111,1.74764 12.4256,0.0126 22.5924,0.0697 22.5928,0.12668 0,0.057 -1.3255,0.76929 -2.9462,1.58296 -16.3295,8.19752 -46.2532,16.31817 -75.6367,20.52618 -8.4058,1.20373 -21.7363,2.65387 -28.7154,3.12375 -4.3259,0.29121 -4.4595,0.3306 -3.7556,1.10754 1.3217,1.45889 8.2237,5.94591 12.2414,7.95821 5.1228,2.56574 7.4172,3.39451 14.5541,5.25739 22.7984,5.95073 50.78,9.39391 71.5984,8.81026 17.7574,-0.49782 31.334,-2.13978 44.3124,-5.3593 6.3575,-1.57706 22.0721,-6.70188 23.4273,-7.64006 0.6391,-0.44246 2.8131,-1.56284 4.8312,-2.48979 9.2605,-4.25357 19.3381,-11.56813 28.2832,-20.52862 8.9065,-8.9218 9.5584,-10.4457 9.9124,-23.17112 0.1408,-5.05782 0.032,-9.56434 -0.2884,-11.99293 -1.3367,-10.11998 -6.6618,-20.33607 -14.8713,-28.53052 -5.6289,-5.61859 -11.039,-9.35941 -19.861,-13.73296 -4.082,-2.02368 -6.9898,-3.68653 -6.4618,-3.69536 0.5279,-0.009 3.2783,0.28427 6.112,0.65119 28.0715,3.63494 53.7493,14.33863 75.4408,31.44741 2.6412,2.08327 8.5784,7.62119 13.1937,12.30644 l 8.3914,8.51867 8.4167,-2.70728 c 4.6292,-1.48901 10.3814,-3.19401 12.7826,-3.7889 16.0142,-3.96749 26.8729,-6.15727 43.38,-8.74816 5.0963,-0.79985 7.3561,-1.31561 6.8947,-1.57347 -0.3775,-0.21104 -6.0481,-2.84677 -12.6015,-5.85726 -6.5534,-3.0105 -17.2843,-8.14686 -23.8463,-11.41417 -13.5295,-6.73645 -13.5056,-6.7046 -5.0954,-6.80194 6.2412,-0.0722 23.8002,0.86726 31.9889,1.71156 9.7337,1.00357 22.8669,2.95925 37.6448,5.60572 13.6553,2.44541 44.1129,7.56907 47.5351,7.99645 1.2283,0.15337 1.8533,0.0773 1.7463,-0.21275 -0.4682,-1.269 -9.9227,-10.3305 -17.427,-16.70247 -18.857,-16.01164 -46.5501,-35.32321 -75.3979,-52.57824 -5.4653,-3.26902 -10.4281,-6.38209 -11.0284,-6.91794 -0.6003,-0.53579 -3.2525,-2.11536 -5.8938,-3.51017 -2.6412,-1.39481 -10.2049,-5.60729 -16.8081,-9.36112 -6.6032,-3.75383 -15.1536,-8.51807 -19.001,-10.58727 -7.2639,-3.90665 -11.2244,-6.46638 -10.4199,-6.73429 1.276,-0.42484 33.7966,7.32443 52.5594,12.52425 49.4916,13.71597 93.7149,30.56717 140.6207,53.58306 19.6678,9.65066 45.9464,24.35475 66.9709,37.47322 8.5511,5.3355 33.4231,22.15998 42.3478,28.64586 14.5854,10.59955 37.3703,28.58055 45.5104,35.91502 3.6162,3.25838 11.9734,13.00261 17.6364,20.56341 17.6876,23.61567 29.6085,50.84208 34.3702,78.4992 2.1639,12.56811 2.4489,16.4692 2.454,33.58022 0.01,17.61843 -0.2815,20.97746 -2.6417,30.96357 -2.4716,10.45662 -4.8433,17.25262 -9.6943,27.77752 -12.2985,26.68345 -32.1026,52.20003 -57.293,73.81943 -2.2811,1.9577 -4.7369,3.9854 -5.4572,4.5058 l -1.3097,0.9463 1.3515,-1.7368 c 0.7433,-0.9553 2.7243,-3.7975 4.4022,-6.316 18.5688,-27.87259 25.7832,-54.6449 24.5213,-90.99711 -1.1223,-32.33061 -12.2864,-63.87348 -29.5829,-83.58316 -1.8465,-2.10402 -2.2718,-2.40124 -2.4965,-1.74443 -3.2041,9.3658 -8.5073,18.81811 -17.8747,31.85948 l -2.3172,3.22611 -0.2346,-1.44711 c -0.1291,-0.79588 -0.4382,-3.31144 -0.6871,-5.59008 -2.459,-22.51605 -9.3096,-41.07724 -20.4186,-55.32275 -5.489,-7.03873 -13.6126,-14.29125 -20.5184,-18.31819 -3.5034,-2.04294 -13.8943,-6.88812 -19.894,-9.27651 -2.3607,-0.93973 -5.2242,-2.1804 -6.3633,-2.75697 -3.0045,-1.52093 -19.054,-6.40047 -29.4979,-8.96837 -9.5186,-2.34036 -20.5695,-4.34261 -29.262,-5.30173 -8.3233,-0.91841 -33.8357,-0.78409 -41.2564,0.21718 -15.0662,2.03281 -25.8292,5.21915 -38.6369,11.4382 -6.6154,3.21222 -10.9726,6.32955 -14.1304,10.10951 -7.1626,8.574 -10.2673,15.31293 -10.3004,22.35797 -0.015,3.26194 0.1446,4.04714 1.3326,6.5416 4.1685,8.7521 13.7886,16.97387 23.6919,20.2483 14.8393,4.9064 19.5111,4.01668 40.8425,-7.7784 2.8603,-1.58154 5.262,-2.87555 5.3372,-2.87555 0.2101,0 -0.2672,2.48204 -1.2024,6.25227 -2.0687,8.34038 -6.8034,15.32015 -12.7564,18.80506 -1.131,0.66211 -5.1156,2.15576 -8.8547,3.31929 -11.9713,3.72523 -19.2423,4.87875 -30.7269,4.87466 -7.7859,-0.005 -15.9119,-0.99578 -20.8716,-2.55073 -2.4962,-0.78259 -8.3789,-1.87952 -8.3789,-1.56238 0,0.12605 0.7367,1.39139 1.6372,2.81177 1.4872,2.34601 2.3836,3.07874 9.7893,8.00235 10.2056,6.78505 16.2992,9.73247 28.7384,13.90043 10.7509,3.60224 9.9446,3.45313 35.5809,6.57893 9.5634,1.16604 9.6937,1.16988 30.342,0.89855 11.4056,-0.14988 26.3364,-0.37288 33.1797,-0.49552 14.3229,-0.2566 14.1856,-0.40708 3.0561,3.3485 -14.8809,5.02151 -32.1756,8.22295 -53.9171,9.98077 -3.1215,0.25238 -12.8462,0.5654 -21.6105,0.69568 -34.1868,0.50812 -66.2321,-2.90918 -86.6602,-9.24138 -36.3372,-11.26366 -61.1232,-31.37097 -77.93,-63.21966 -1.5189,-2.87831 -2.8272,-5.31468 -2.9073,-5.41411 -0.08,-0.0994 -1.3739,0.36727 -2.8751,1.03716 -14.6504,6.53728 -30.9364,11.84344 -47.8425,15.58757 -3.5216,0.77994 -6.5091,1.56343 -6.6388,1.74108 -0.1297,0.17769 -1.7014,0.62541 -3.4926,0.99499 -7.8522,1.62005 -13.0616,2.95579 -12.8516,3.29529 0.1248,0.20176 1.3524,0.99746 2.728,1.76825 1.3756,0.77076 3.287,1.96203 4.2474,2.64731 0.9605,0.68525 6.8582,4.6294 13.1061,8.7648 22.5572,14.93034 38.3078,27.69721 58.2005,47.17516 17.0289,16.6739 31.6945,36.44634 41.3105,55.69602 9.0578,18.13217 14.4892,35.7638 16.6186,53.948 0.8042,6.8675 1.2398,19.2208 0.7768,22.0287 l -0.3496,2.1194 -1.0164,-2.1194 z M 391.06953,278.75358 c 8.8742,-9.08365 13.4821,-13.31099 30.1094,-27.62265 14.5535,-12.5267 15.1344,-13.06712 13.7521,-12.79331 -9.1303,1.80855 -16.8939,3.68409 -21.9414,5.30068 -23.7768,7.61502 -45.2907,20.05766 -66.6594,38.55284 -2.8946,2.50535 -5.2629,4.73138 -5.2629,4.94671 0,0.22876 8.697,0.30517 20.9173,0.18386 l 20.9173,-0.20769 8.1676,-8.36044 z"
     id="path4138"
     inkscape:connector-curvature="0" />
</svg>
